<?xml version="1.0" standalone="no"?>
<!DOCTYPE svg PUBLIC "-//W3C//DTD SVG 20010904//EN"
 "http://www.w3.org/TR/2001/REC-SVG-20010904/DTD/svg10.dtd">
<svg version="1.0" xmlns="http://www.w3.org/2000/svg"
 width="185.000000pt" height="200.000000pt" viewBox="0 0 185.000000 200.000000"
 preserveAspectRatio="xMidYMid meet">

<g transform="translate(0.000000,200.000000) scale(0.100000,-0.100000)"
fill="#000000" stroke="none">
<path d="M1393 1960 c-39 -10 -84 -25 -100 -33 -150 -79 -223 -216 -223 -421
l0 -86 -195 0 -195 0 0 -140 0 -140 520 0 520 0 0 140 0 140 -126 0 -126 0 3
84 c4 78 6 87 34 116 36 38 91 53 172 48 l63 -4 0 147 0 147 -63 11 c-92 16
-202 13 -284 -9z"/>
<path d="M680 1070 l0 -30 165 0 165 0 0 30 0 30 -165 0 -165 0 0 -30z"/>
<path d="M1070 1070 l0 -30 200 0 200 0 0 30 0 30 -200 0 -200 0 0 -30z"/>
<path d="M680 925 l0 -35 165 0 165 0 0 35 0 35 -165 0 -165 0 0 -35z"/>
<path d="M1070 925 l0 -35 200 0 200 0 0 35 0 35 -200 0 -200 0 0 -35z"/>
<path d="M680 635 c0 -207 -10 -264 -54 -313 -27 -29 -41 -35 -82 -39 -91 -8
-131 30 -149 140 l-6 37 -165 0 -166 0 7 -52 c25 -205 130 -323 324 -364 184
-39 365 3 480 111 110 103 132 173 138 448 l5 207 -166 0 -166 0 0 -175z"/>
<path d="M1070 480 l0 -330 200 0 200 0 0 330 0 330 -200 0 -200 0 0 -330z"/>
</g>
</svg>
